<?xml version="1.0" encoding="UTF-8"?>
<svg width="700pt" height="700pt" version="1.1" viewBox="0 0 700 700" xmlns="http://www.w3.org/2000/svg">
 <g>
  <path d="m501.67 163.33h-40.836l-17.5-23.332c-11.039-14.66-28.312-23.297-46.664-23.332h-93.336c-18.352 0.035156-35.625 8.6719-46.664 23.332l-17.5 23.332h-40.836c-15.469 0-30.309 6.1484-41.246 17.086-10.941 10.941-17.086 25.777-17.086 41.25v163.33c0 15.473 6.1445 30.309 17.086 41.246 10.938 10.941 25.777 17.086 41.246 17.086h303.34c15.469 0 30.309-6.1445 41.246-17.086 10.941-10.938 17.086-25.773 17.086-41.246v-163.33c0-15.473-6.1445-30.309-17.086-41.25-10.938-10.938-25.777-17.086-41.246-17.086zm35 221.67c0 9.2812-3.6875 18.184-10.254 24.75-6.5625 6.5625-15.465 10.25-24.746 10.25h-303.34c-9.2812 0-18.184-3.6875-24.746-10.25-6.5664-6.5664-10.254-15.469-10.254-24.75v-163.33c0-9.2852 3.6875-18.188 10.254-24.75 6.5625-6.5625 15.465-10.25 24.746-10.25h46.668c3.6914 0.074219 7.1797-1.668 9.332-4.668l21-28c6.5859-8.8438 16.977-14.035 28-14h93.336c11.023-0.035156 21.414 5.1562 28 14l21 28c2.1523 3 5.6406 4.7422 9.332 4.668h46.668c9.2812 0 18.184 3.6875 24.746 10.25 6.5664 6.5625 10.254 15.465 10.254 24.75z"/>
  <path d="m350 210c-21.66 0-42.43 8.6055-57.746 23.918-15.316 15.316-23.922 36.09-23.922 57.75 0 21.656 8.6055 42.43 23.922 57.746 15.316 15.316 36.086 23.918 57.746 23.918s42.43-8.6016 57.746-23.918c15.316-15.316 23.922-36.09 23.922-57.746 0-21.66-8.6055-42.434-23.922-57.75-15.316-15.312-36.086-23.918-57.746-23.918zm0 140c-15.473 0-30.309-6.1445-41.246-17.086-10.941-10.938-17.086-25.777-17.086-41.246 0-15.473 6.1445-30.309 17.086-41.25 10.938-10.938 25.773-17.086 41.246-17.086s30.309 6.1484 41.246 17.086c10.941 10.941 17.086 25.777 17.086 41.25 0 15.469-6.1445 30.309-17.086 41.246-10.938 10.941-25.773 17.086-41.246 17.086z"/>
 </g>
</svg>
